# This file uses centimeters as units for non-parametric coordinates.

mtllib ground_stone1.mtl
g default
v -0.993102 -0.977129 0.882352
v -0.894284 -0.696658 0.909880
v -0.999748 -0.722669 -0.922362
v 0.970772 -0.933706 0.993495
v -0.958485 -0.697334 -0.879412
v 0.954516 -0.968396 -0.975751
v 0.903285 -0.696541 -0.887370
v -0.958609 -0.796303 0.996586
v -0.998658 -0.764679 -0.950627
v -1.000024 -0.910482 0.933981
v -0.936611 -0.702085 0.975868
v 0.980951 -0.788631 -0.980949
v -0.966725 -0.970750 -0.960151
v 0.935296 -0.707920 0.961980
v 0.964725 -0.702041 -0.949297
v -0.920164 -0.987702 0.971318
v -0.905771 -0.920691 0.998757
v -0.982014 -0.915756 0.973899
v -0.918235 -0.699489 -0.973686
v -0.921291 -0.758743 -0.999500
v -0.903304 -0.696833 -0.895212
v 0.978360 -0.960016 0.931478
v 0.999782 -0.895960 0.931222
v 0.973250 -0.885571 0.992332
v 0.902271 -0.899119 0.999989
v 0.910884 -0.963202 0.988297
v 0.912973 -0.994521 0.925802
v 0.895619 -0.976814 -0.984146
v 0.907612 -0.917048 -0.999920
v 0.975965 -0.916876 -0.983401
v 0.970629 -0.987844 -0.923000
v 0.906879 -0.999889 -0.915291
v 0.999827 -0.929123 -0.918008
v -0.906754 -0.769512 0.999942
v -0.999818 -0.776178 0.946363
v 0.999931 -0.778396 -0.906108
v 0.917232 -0.772865 -0.999953
v -0.983172 -0.979655 -0.904799
v -0.999759 -0.911856 -0.908367
v -0.978611 -0.926992 -0.977316
v -0.915592 -0.921110 -0.999847
v -0.915303 -0.987300 -0.975405
v -0.914547 -0.999874 -0.903070
v 0.960509 -0.754700 0.990251
v 0.998867 -0.755616 0.925506
v 0.957290 -0.704342 0.921727
v 0.892866 -0.696692 0.909510
v 0.896408 -0.701184 0.971282
v 0.898728 -0.760261 0.999813
v -0.913002 -0.999749 0.923458
vt 0.448430 0.013390
vt 0.470910 0.025290
vt 0.482090 0.013970
vt 0.469480 0.001950
vt 0.481850 0.980900
vt 0.502420 0.961090
vt 0.492270 0.962610
vt 0.474580 0.908050
vt 0.486570 0.917330
vt 0.094330 0.934050
vt 0.085280 0.919260
vt 0.074960 0.925650
vt 0.086580 0.938800
vt 0.102770 0.925590
vt 0.099290 0.915020
vt 0.503630 0.474820
vt 0.486290 0.463190
vt 0.483900 0.477050
vt 0.498080 0.486000
vt 0.512670 0.500300
vt 0.523930 0.492170
vt 0.500940 0.450460
vt 0.485870 0.444850
vt 0.053400 0.475770
vt 0.035420 0.496170
vt 0.046780 0.501250
vt 0.060000 0.488070
vt 0.068810 0.466900
vt 0.068530 0.451940
vt 0.052110 0.453790
vt 0.073990 0.478690
vt 0.096090 0.532520
vt 0.085320 0.520500
vt 0.499800 0.930900
vt 0.500070 0.917770
vt 0.486340 0.935590
vt 0.074060 0.508790
vt 0.088550 0.504600
vt 0.068160 0.520850
vt 0.065770 0.974700
vt 0.079350 0.981970
vt 0.082830 0.967650
vt 0.064500 0.962490
vt 0.067950 0.026940
vt 0.058330 0.021970
vt 0.050990 0.035290
vt 0.065540 0.038790
vt 0.080560 0.040210
vt 0.080880 0.024670
vt 0.476920 0.517780
vt 0.484130 0.508950
vt 0.472120 0.502400
vt 0.469220 0.514740
vt 0.467570 0.527360
vt 0.479500 0.524580
vt 0.490910 0.518560
vt 0.460680 0.029340
vt 0.529140 0.928130
vt 0.544590 0.933500
vt 0.050670 0.946410
vt 0.520270 0.947070
vn -0.556868 -0.502454 0.661391
vn -0.556868 -0.502454 0.661391
vn -0.556868 -0.502453 0.661391
vn -0.556868 -0.502454 0.661391
vn -0.984736 -0.174042 0.002092
vn -0.984736 -0.174042 0.002092
vn -0.984736 -0.174042 0.002092
vn -0.984736 -0.174042 0.002092
vn -0.984736 -0.174042 0.002092
vn -0.059218 0.998244 0.001748
vn -0.059218 0.998244 0.001748
vn -0.059218 0.998244 0.001748
vn -0.059218 0.998244 0.001748
vn -0.000133 0.997003 0.077364
vn -0.000133 0.997003 0.077364
vn -0.000133 0.997003 0.077364
vn -0.000133 0.997003 0.077364
vn -0.000072 1.000000 -0.000007
vn -0.000072 1.000000 -0.000007
vn -0.000072 1.000000 -0.000007
vn -0.000072 1.000000 -0.000007
vn -0.539703 0.404703 -0.738198
vn -0.539703 0.404703 -0.738198
vn -0.539703 0.404703 -0.738198
vn -0.539703 0.404703 -0.738198
vn -0.694888 0.718955 0.015316
vn -0.694888 0.718955 0.015316
vn -0.694888 0.718955 0.015316
vn -0.694888 0.718955 0.015316
vn -0.225691 0.966970 -0.118460
vn -0.225691 0.966970 -0.118460
vn -0.225691 0.966970 -0.118460
vn -0.225691 0.966970 -0.118460
vn 0.928990 -0.193917 0.315235
vn 0.928990 -0.193917 0.315235
vn 0.928990 -0.193917 0.315235
vn 0.928990 -0.193917 0.315235
vn 0.048508 -0.090678 0.994698
vn 0.048508 -0.090678 0.994698
vn 0.048508 -0.090678 0.994698
vn 0.048508 -0.090678 0.994698
vn 0.385923 -0.825409 0.412023
vn 0.385923 -0.825409 0.412023
vn 0.385923 -0.825409 0.412023
vn 0.385923 -0.825409 0.412023
vn 0.202397 -0.259583 -0.944273
vn 0.202397 -0.259583 -0.944273
vn 0.202397 -0.259583 -0.944273
vn 0.202397 -0.259583 -0.944273
vn 0.155674 -0.921002 -0.357100
vn 0.155674 -0.921003 -0.357100
vn 0.155674 -0.921002 -0.357100
vn 0.155674 -0.921002 -0.357100
vn 0.834096 -0.392551 -0.387540
vn 0.834096 -0.392551 -0.387540
vn 0.834096 -0.392551 -0.387540
vn 0.834096 -0.392551 -0.387540
vn -0.492516 0.295040 0.818767
vn -0.492516 0.295040 0.818767
vn -0.492516 0.295040 0.818767
vn -0.492516 0.295040 0.818767
vn -0.835549 0.001815 0.549414
vn -0.835549 0.001815 0.549414
vn -0.835549 0.001815 0.549414
vn -0.835549 0.001815 0.549414
vn -0.203276 -0.069308 0.976665
vn -0.203276 -0.069308 0.976665
vn -0.203276 -0.069308 0.976665
vn -0.203276 -0.069308 0.976665
vn -0.979511 -0.048779 -0.195396
vn -0.979511 -0.048779 -0.195396
vn -0.979511 -0.048779 -0.195396
vn -0.979511 -0.048779 -0.195396
vn -1.000000 0.000671 -0.000081
vn -1.000000 0.000671 -0.000081
vn -1.000000 0.000671 -0.000081
vn -1.000000 0.000671 -0.000081
vn 0.956353 -0.002415 -0.292204
vn 0.956353 -0.002415 -0.292204
vn 0.956353 -0.002415 -0.292204
vn 0.956353 -0.002415 -0.292204
vn 0.259142 -0.005316 -0.965824
vn 0.259142 -0.005316 -0.965824
vn 0.259142 -0.005316 -0.965825
vn 0.259142 -0.005316 -0.965825
vn 0.711680 0.354959 -0.606230
vn 0.711680 0.354959 -0.606230
vn 0.711680 0.354959 -0.606230
vn 0.711680 0.354959 -0.606230
vn -0.921522 -0.284349 -0.264468
vn -0.921522 -0.284349 -0.264468
vn -0.921522 -0.284349 -0.264468
vn -0.921522 -0.284349 -0.264468
vn -0.322357 -0.366055 -0.872978
vn -0.322357 -0.366055 -0.872978
vn -0.322357 -0.366055 -0.872978
vn -0.322357 -0.366055 -0.872978
vn -0.307237 -0.931554 -0.194454
vn -0.307237 -0.931554 -0.194454
vn -0.307237 -0.931554 -0.194454
vn -0.307237 -0.931554 -0.194454
vn 0.686105 0.601229 0.409615
vn 0.686105 0.601229 0.409615
vn 0.686105 0.601229 0.409615
vn 0.686105 0.601229 0.409615
vn 0.134364 0.985641 0.102265
vn 0.134364 0.985641 0.102265
vn 0.134364 0.985641 0.102265
vn 0.134364 0.985641 0.102265
vn 0.165203 0.499346 0.850507
vn 0.165203 0.499346 0.850507
vn 0.165203 0.499346 0.850507
vn 0.165203 0.499346 0.850507
vn -0.000141 0.001027 -0.999999
vn -0.000141 0.001027 -1.000000
vn -0.000141 0.001027 -0.999999
vn -0.000141 0.001027 -1.000000
vn 0.001433 -0.999998 0.001495
vn 0.001433 -0.999998 0.001495
vn 0.001433 -0.999998 0.001495
vn 0.001433 -0.999998 0.001495
vn 0.007814 0.504518 -0.863366
vn 0.007814 0.504518 -0.863366
vn 0.007814 0.504518 -0.863366
vn 0.007814 0.504518 -0.863366
vn 0.001115 0.998338 -0.057621
vn 0.001115 0.998338 -0.057621
vn 0.001115 0.998338 -0.057621
vn 0.001115 0.998338 -0.057621
vn 0.104369 0.994538 0.001173
vn 0.104369 0.994538 0.001173
vn 0.104369 0.994538 0.001173
vn 0.104369 0.994538 0.001173
vn 0.857027 0.515270 -0.000883
vn 0.857027 0.515270 -0.000883
vn 0.857027 0.515270 -0.000883
vn 0.857027 0.515270 -0.000883
vn 0.999996 0.002780 0.000259
vn 0.999996 0.002780 0.000259
vn 0.999996 0.002780 0.000259
vn 0.999996 0.002780 0.000259
vn 0.924439 -0.381304 0.004361
vn 0.924439 -0.381304 0.004361
vn 0.924439 -0.381304 0.004361
vn 0.924439 -0.381304 0.004361
vn 0.339205 -0.940685 0.007181
vn 0.339205 -0.940685 0.007181
vn 0.339205 -0.940685 0.007181
vn 0.339205 -0.940685 0.007181
vn 0.001381 -0.969543 -0.244917
vn 0.001381 -0.969543 -0.244917
vn 0.001381 -0.969543 -0.244917
vn 0.001381 -0.969543 -0.244917
vn -0.001093 -0.304071 -0.952649
vn -0.001093 -0.304071 -0.952649
vn -0.001093 -0.304071 -0.952649
vn -0.001093 -0.304071 -0.952649
vn 0.000125 0.383994 0.923336
vn 0.000125 0.383994 0.923336
vn 0.000125 0.383994 0.923336
vn 0.000125 0.383994 0.923336
vn 0.126352 0.015927 0.991858
vn 0.126352 0.015927 0.991858
vn 0.126352 0.015927 0.991858
vn 0.126352 0.015927 0.991858
vn -0.001175 -0.285975 0.958236
vn -0.001175 -0.285975 0.958236
vn -0.001175 -0.285975 0.958236
vn -0.001175 -0.285975 0.958236
vn 0.005630 -0.930543 0.366139
vn 0.005630 -0.930543 0.366139
vn 0.005630 -0.930543 0.366139
vn 0.005630 -0.930543 0.366139
vn -0.278069 -0.960557 0.002887
vn -0.278069 -0.960557 0.002887
vn -0.278069 -0.960557 0.002887
vn -0.278069 -0.960557 0.002887
vn -0.278069 -0.960557 0.002887
vn -0.000276 -0.003487 0.999994
vn -0.000276 -0.003487 0.999994
vn -0.000276 -0.003487 0.999994
vn -0.000276 -0.003487 0.999994
vn 0.889433 0.057820 0.453393
vn 0.889433 0.057820 0.453393
vn 0.889433 0.057820 0.453393
vn 0.889433 0.057820 0.453393
vn -0.455560 0.037935 -0.889396
vn -0.455560 0.037935 -0.889396
vn -0.455560 0.037935 -0.889396
vn -0.455560 0.037935 -0.889396
s off
g Group1
usemtl initialShadingGroup
f 1/1/1 16/2/2 17/3/3 18/4/4
f 1/5/5 18/6/6 10/7/7 39/42/8 38/41/9
f 11/9/10 2/8/11 21/15/12 5/14/13
f 47/54/14 2/8/15 11/9/16 48/55/17
f 21/15/18 2/8/19 47/54/20 7/32/21
f 3/10/22 19/11/23 20/12/24 9/13/25
f 11/9/26 5/14/27 3/10/28 35/36/29
f 3/10/30 5/14/31 21/15/32 19/11/33
f 4/16/34 22/17/35 23/18/36 24/19/37
f 4/16/38 24/19/39 25/20/40 26/21/41
f 4/16/42 26/22/43 27/23/44 22/17/45
f 6/24/46 28/25/47 29/26/48 30/27/49
f 6/24/50 31/28/51 32/29/52 28/30/53
f 6/24/54 30/27/55 33/31/56 31/28/57
f 8/34/58 34/35/59 11/9/60 35/36/61
f 8/34/62 35/36/63 10/7/64 18/6/65
f 34/35/66 8/34/67 18/61/68 17/58/69
f 3/10/70 9/13/71 40/43/72 39/42/73
f 10/7/74 35/36/75 3/10/76 39/42/77
f 12/37/78 36/38/79 33/31/80 30/27/81
f 37/39/82 12/37/83 30/27/84 29/26/85
f 12/37/86 37/39/87 15/33/88 36/38/89
f 13/40/90 38/41/91 39/42/92 40/43/93
f 13/44/94 40/45/95 41/46/96 42/47/97
f 13/44/98 42/47/99 43/48/100 38/49/101
f 14/50/102 44/51/103 45/52/104 46/53/105
f 14/50/106 46/53/107 47/54/108 48/55/109
f 14/50/110 48/55/111 49/56/112 44/51/113
f 37/39/114 29/26/115 41/60/116 20/12/117
f 43/48/118 32/29/119 27/23/120 50/57/121
f 15/33/122 37/39/123 20/12/124 19/11/125
f 7/32/126 15/33/127 19/11/128 21/15/129
f 47/54/130 46/53/131 15/33/132 7/32/133
f 15/33/134 46/53/135 45/52/136 36/38/137
f 36/38/138 45/52/139 23/18/140 33/31/141
f 33/31/142 23/18/143 22/17/144 31/28/145
f 31/28/146 22/17/147 27/23/148 32/29/149
f 32/29/150 43/48/151 42/47/152 28/30/153
f 28/25/154 42/47/155 41/46/156 29/26/157
f 34/35/158 49/56/159 48/55/160 11/9/161
f 44/51/162 49/56/163 25/20/164 24/19/165
f 16/59/166 26/21/167 25/20/168 17/58/169
f 50/57/170 27/23/171 26/22/172 16/2/173
f 1/1/174 38/49/175 43/48/176 50/57/177 16/2/178
f 49/56/179 34/35/180 17/58/181 25/20/182
f 44/51/183 24/19/184 23/18/185 45/52/186
f 20/12/187 41/60/188 40/43/189 9/13/190
